<svg width="82" height="33" viewBox="0 0 82 33" fill="none" xmlns="http://www.w3.org/2000/svg">
<path d="M0 26.5865V12.3113H6.19022C7.27744 12.3113 8.19183 12.4579 8.9334 12.7501C9.67497 13.0424 10.2343 13.4572 10.6135 13.9913C10.9926 14.5255 11.1812 15.155 11.1812 15.8809C11.1812 16.4056 11.0659 16.8843 10.8366 17.3169C10.6061 17.7495 10.2846 18.1108 9.87084 18.4009C9.45711 18.6911 8.97425 18.8922 8.42121 19.0043V19.1436C9.035 19.1666 9.59222 19.3216 10.0939 19.6076C10.5956 19.8935 10.9958 20.2863 11.2932 20.7859C11.5907 21.2855 11.7394 21.8721 11.7394 22.5466C11.7394 23.3269 11.5362 24.0224 11.1298 24.631C10.7224 25.2395 10.1453 25.7182 9.3974 26.067C8.64955 26.4158 7.75715 26.5896 6.72021 26.5896H0V26.5865ZM3.87543 18.0825H5.46436C5.80372 18.0825 6.10328 18.0291 6.36409 17.9223C6.62385 17.8154 6.82705 17.6604 6.97369 17.4583C7.12032 17.2561 7.19364 17.0089 7.19364 16.7157C7.19364 16.2747 7.03548 15.9364 6.71916 15.7018C6.40285 15.4671 6.00378 15.3498 5.52092 15.3498H3.87543V18.0825ZM3.87543 23.4914H5.68746C6.33791 23.4914 6.826 23.3699 7.1507 23.1258C7.47645 22.8818 7.63879 22.5204 7.63879 22.0418C7.63879 21.7066 7.56233 21.4238 7.40836 21.1913C7.25439 20.9587 7.03758 20.7828 6.75687 20.6613C6.47512 20.5408 6.13785 20.4801 5.74297 20.4801H3.87439V23.4914H3.87543Z" fill="#231F20"/>
<path d="M21.5526 12.3113H25.4281V21.4563C25.4281 22.5435 25.1694 23.4841 24.6509 24.2759C24.1324 25.0688 23.4107 25.6794 22.4869 26.1089C21.5621 26.5394 20.4885 26.7541 19.2661 26.7541C18.0438 26.7541 16.9566 26.5394 16.0317 26.1089C15.1068 25.6794 14.3883 25.0677 13.874 24.2759C13.3608 23.4841 13.1042 22.5435 13.1042 21.4563V12.3113H16.9796V21.1221C16.9796 21.5641 17.077 21.958 17.2718 22.3036C17.4667 22.6503 17.7379 22.9205 18.0836 23.1154C18.4292 23.3102 18.8241 23.4076 19.2651 23.4076C19.706 23.4076 20.1062 23.3102 20.4497 23.1154C20.7933 22.9205 21.0635 22.6493 21.2583 22.3036C21.4531 21.958 21.5505 21.5641 21.5505 21.1221V12.3113H21.5526Z" fill="#231F20"/>
<path d="M27.2694 12.3113H32.0928L35.411 20.3973H35.5786L38.8968 12.3113H43.7201V26.5875H39.9285V18.3339H39.8164L36.6375 26.4755H34.351L31.1721 18.2784H31.06V26.5875H27.2673V12.3113H27.2694Z" fill="#231F20"/>
<path d="M51.0531 26.5865H45.5604V12.3113H50.9976C52.466 12.3113 53.7355 12.5962 54.807 13.1649C55.8775 13.7347 56.7049 14.5517 57.2883 15.619C57.8717 16.6853 58.1629 17.9621 58.1629 19.4494C58.1629 20.9367 57.8717 22.2135 57.2915 23.2798C56.7101 24.3461 55.8879 25.1641 54.8238 25.7339C53.7596 26.3026 52.5027 26.5875 51.052 26.5875L51.0531 26.5865ZM49.4359 23.2966H50.9138C51.6197 23.2966 52.223 23.1824 52.7226 22.9551C53.2223 22.7278 53.6035 22.335 53.8654 21.7768C54.1283 21.2195 54.2592 20.4434 54.2592 19.4484C54.2592 18.4533 54.1251 17.6782 53.858 17.12C53.591 16.5627 53.2003 16.17 52.687 15.9416C52.1738 15.7143 51.5453 15.6002 50.8017 15.6002H49.4359V23.2955V23.2966Z" fill="#231F20"/>
<path d="M65.1335 26.7823C63.9907 26.7823 63.0062 26.5624 62.1818 26.1235C61.3565 25.6846 60.7228 25.052 60.2787 24.2277C59.8346 23.4034 59.6136 22.4146 59.6136 21.2614C59.6136 20.1082 59.8367 19.1886 60.2829 18.3611C60.7291 17.5337 61.3586 16.8905 62.1724 16.4297C62.9852 15.9699 63.9446 15.7394 65.0507 15.7394C65.8593 15.7394 66.5915 15.8651 67.2461 16.1155C67.9007 16.3668 68.4611 16.7303 68.9261 17.2069C69.3912 17.6834 69.7484 18.2606 69.9997 18.9393C70.2511 19.618 70.3758 20.3826 70.3758 21.2331V22.1255H60.8118V20.0066H66.8345C66.8303 19.6997 66.7517 19.4295 66.6009 19.1949C66.4501 18.9602 66.2479 18.7769 65.9944 18.6439C65.741 18.5119 65.454 18.4449 65.1335 18.4449C64.8129 18.4449 64.5364 18.5109 64.2756 18.6439C64.0148 18.7769 63.8074 18.9592 63.6514 19.1917C63.4953 19.4242 63.4126 19.6955 63.4042 20.0077V22.2942C63.4042 22.6377 63.4765 22.9446 63.6199 23.2148C63.7634 23.4851 63.9708 23.6956 64.24 23.8485C64.5092 24.0014 64.8349 24.079 65.2162 24.079C65.4812 24.079 65.7242 24.0423 65.9452 23.9679C66.1652 23.8936 66.3547 23.7857 66.5129 23.6432C66.6711 23.5018 66.7873 23.3311 66.8617 23.131H70.3747C70.2543 23.8747 69.9683 24.5199 69.5169 25.0656C69.0655 25.6113 68.4705 26.0345 67.729 26.334C66.9874 26.6336 66.1222 26.7834 65.1324 26.7834L65.1335 26.7823Z" fill="#231F20"/>
<path d="M81.7225 19.3656H78.1811C78.1623 19.1467 78.0858 18.9592 77.9507 18.8011C77.8156 18.6429 77.6428 18.5214 77.4312 18.4355C77.2196 18.3496 76.986 18.3067 76.7305 18.3067C76.4005 18.3067 76.1167 18.3674 75.88 18.4879C75.6433 18.6083 75.526 18.7812 75.5312 19.0043C75.526 19.1624 75.5951 19.3091 75.7365 19.4431C75.8779 19.5772 76.1534 19.683 76.5629 19.7563L78.7384 20.147C79.835 20.347 80.652 20.6822 81.1883 21.1546C81.7256 21.6259 81.9958 22.2575 82 23.0473C81.9958 23.8098 81.7685 24.4707 81.3203 25.03C80.872 25.5904 80.2603 26.0219 79.4873 26.3267C78.7143 26.6315 77.8324 26.7834 76.8426 26.7834C75.2065 26.7834 73.9276 26.4482 73.0048 25.78C72.0821 25.1107 71.5678 24.2277 71.4609 23.1311H75.2809C75.3322 23.4704 75.5008 23.7323 75.7857 23.9156C76.0717 24.0989 76.433 24.1911 76.8698 24.1911C77.2228 24.1911 77.5139 24.1303 77.7444 24.0099C77.9748 23.8894 78.0921 23.7166 78.0963 23.4935C78.0921 23.2892 77.9905 23.1269 77.7926 23.0054C77.5946 22.8849 77.2877 22.7865 76.8687 22.7132L74.9729 22.378C73.8805 22.1874 73.0624 21.825 72.5188 21.2908C71.9752 20.7566 71.706 20.0684 71.7102 19.2274C71.706 18.4837 71.9019 17.8532 72.2989 17.3347C72.6969 16.8162 73.2656 16.4213 74.0072 16.1501C74.7488 15.8777 75.6276 15.7426 76.6456 15.7426C78.1937 15.7426 79.414 16.0631 80.3084 16.7041C81.2029 17.3452 81.6732 18.2334 81.7204 19.3667L81.7225 19.3656Z" fill="#231F20"/>
<path d="M24.6425 7.28267C24.4728 7.23449 24.3 7.19679 24.1261 7.16955C24.8111 6.43741 25.2877 5.55758 25.5496 4.5374C25.8009 3.55702 25.8784 2.52008 25.7946 1.2747C25.7465 0.497522 25.2416 0.00942673 24.4707 0H24.4194C23.6275 0 22.842 0.148733 22.0177 0.456673C19.97 1.22129 18.2072 3.23127 17.9369 5.64242C17.6248 5.33029 17.2666 5.05587 16.8633 4.82125C16.1867 4.43056 15.4242 4.2326 14.5967 4.2326C14.2448 4.2326 13.8824 4.26612 13.4907 4.3363C13.0099 4.42218 12.6705 4.85581 12.703 5.34286C12.7103 5.45389 12.7166 5.56177 12.7219 5.66861C12.7355 5.92208 12.7501 6.18394 12.7816 6.44893C12.8214 6.78306 12.8821 7.11404 12.9638 7.43664C13.7012 10.2846 15.3456 11.1351 17.1105 11.4776H14.073C13.5441 11.4776 13.1157 11.906 13.1157 12.4349V17.5117C13.1157 17.8752 13.321 18.2072 13.6457 18.3685C13.7808 18.4355 13.9274 18.4691 14.073 18.4691C14.2773 18.4691 14.4805 18.4041 14.6502 18.2763L19.2535 14.8052L23.8737 18.2941C24.0434 18.4219 24.2466 18.4879 24.4508 18.4879C24.5964 18.4879 24.742 18.4544 24.8771 18.3874C25.2029 18.225 25.4082 17.893 25.4082 17.5306V12.4349C25.4082 11.906 24.9798 11.4776 24.4508 11.4776H24.2026C24.8719 10.8125 25.3223 9.9075 25.559 8.74696C25.559 8.74277 25.5611 8.73858 25.5611 8.73544C25.691 8.05671 25.3212 7.47226 24.6414 7.28163L24.6425 7.28267Z" fill="#231F20"/>
<path d="M24.4508 12.437V17.5327L19.8495 14.0584L19.2525 13.6091L18.5633 14.1296L16.9785 15.3237V14.4051H15.2178V16.6508L14.073 17.5138V12.437H24.4508Z" fill="#D9EFDE"/>
<path d="M24.6205 8.55736C24.2591 10.3306 23.3918 11.3759 21.6469 11.7593C21.2415 11.8494 20.8236 11.8892 20.3407 11.9635C20.7586 11.1371 21.3588 10.559 21.937 9.96194C20.9346 10.5464 20.1763 11.3236 19.8547 12.437H18.5025C18.4742 12.0934 18.4313 11.7467 18.3664 11.4032C18.1192 10.0971 17.4781 9.02031 16.5994 8.06193C16.4967 7.94776 16.3825 7.84197 16.2558 7.74351C16.8371 8.67781 17.4656 9.58487 17.8646 10.6333C15.773 10.3484 14.5108 9.59953 13.8887 7.19886C13.8174 6.9171 13.7651 6.62592 13.7305 6.33893C13.6907 5.99852 13.6813 5.65183 13.6561 5.28104C14.6313 5.10822 15.5404 5.16687 16.3815 5.65183C17.5075 6.30437 18.1485 7.30674 18.3988 8.57516C18.491 9.03602 18.6062 9.49374 18.711 9.95461C18.7204 10.0007 18.7455 10.0447 18.7853 10.14C18.9215 9.42252 19.0451 8.76579 19.1624 8.10697C19.175 8.03889 19.1498 7.96138 19.1289 7.89644C18.1474 5.00662 19.9888 2.23411 22.3497 1.35324C23.0305 1.09976 23.7302 0.95103 24.4602 0.957314C24.72 0.960457 24.8195 1.0631 24.8341 1.33438C24.9022 2.33362 24.8687 3.32028 24.6173 4.29857C24.2371 5.7838 23.3395 6.86054 22.0124 7.59373C21.4091 7.92472 20.7806 8.20961 20.1407 8.48823C20.5335 6.96633 21.1986 5.58584 21.9349 4.21792C21.8668 4.29542 21.7956 4.37608 21.7275 4.45568C21.6563 4.53947 21.5819 4.62012 21.5138 4.70601C20.4832 6.04565 19.883 7.56755 19.6013 9.22037C19.4808 9.92004 19.4001 10.6281 19.3593 11.3361C19.353 11.4629 19.4242 11.5592 19.4735 12.0725C19.5573 11.819 19.6746 11.6389 19.6683 11.4597C19.64 10.7789 19.9029 10.2186 20.302 9.69904C20.9304 8.88205 21.7097 8.30074 22.7498 8.12687C23.2976 8.0347 23.8391 8.04936 24.3775 8.20123C24.5754 8.25675 24.6529 8.35939 24.6152 8.55421L24.6205 8.55736Z" fill="#B6F500"/>
<path d="M0 29.7387H1.23595V32.949H2.33573V29.7387H3.57168V28.8389H0V29.7387Z" fill="#231F20"/>
<path d="M3.98853 32.949H6.94223V32.0503H5.10402V31.3433H6.79769V30.4446H5.10402V29.7387H6.95061V28.8389H3.98853V32.949Z" fill="#231F20"/>
<path d="M9.19733 31.6565C9.19628 31.7623 9.18057 31.8513 9.15124 31.9226C9.12191 31.9938 9.07897 32.0483 9.02136 32.0839C8.9648 32.1195 8.89462 32.1383 8.81188 32.1383C8.72913 32.1383 8.66105 32.1205 8.60449 32.0849C8.54793 32.0493 8.50394 31.9959 8.47252 31.9257C8.44109 31.8545 8.42329 31.7676 8.4191 31.6649H7.3036C7.30255 31.9802 7.36645 32.2368 7.49633 32.4348C7.6262 32.6317 7.80008 32.7762 8.01794 32.8684C8.2358 32.9595 8.47671 33.0056 8.74065 33.0056C9.0444 33.0056 9.31254 32.949 9.54612 32.8359C9.77969 32.7228 9.96299 32.5646 10.096 32.3625C10.229 32.1593 10.2961 31.9247 10.2971 31.6576V28.84H9.19733V31.6576V31.6565Z" fill="#231F20"/>
<path d="M12.0474 28.8389L10.691 32.949H11.8945L12.1322 32.1624H13.4876L13.7253 32.949H14.9288L13.5724 28.8389H12.0474ZM12.3846 31.3276L12.7942 29.9712H12.8267L13.2362 31.3276H12.3846Z" fill="#231F20"/>
<path d="M19.02 29.0202C18.7916 28.8997 18.5246 28.84 18.2198 28.84H16.4454V32.9501H17.5609V31.7298H18.1789C18.4921 31.7298 18.7655 31.6712 19.0011 31.5549C19.2357 31.4387 19.418 31.2732 19.5489 31.0574C19.6799 30.8416 19.7448 30.5871 19.7448 30.2928C19.7448 29.9985 19.6809 29.746 19.5542 29.5282C19.4274 29.3103 19.2494 29.1406 19.02 29.0202ZM18.5057 30.5955C18.4554 30.6814 18.3842 30.7474 18.291 30.7935C18.1978 30.8395 18.0857 30.8626 17.9548 30.8626H17.562V29.7303H17.9548C18.0857 29.7303 18.1978 29.7523 18.291 29.7974C18.3842 29.8424 18.4554 29.9063 18.5057 29.9901C18.556 30.0739 18.5811 30.1744 18.5811 30.2917C18.5811 30.4091 18.556 30.5096 18.5057 30.5944V30.5955Z" fill="#231F20"/>
<path d="M20.1544 32.949H23.1081V32.0503H21.2699V31.3433H22.9635V30.4446H21.2699V29.7387H23.1154V28.8389H20.1544V32.949Z" fill="#231F20"/>
<path d="M26.773 30.9799C26.9039 30.7777 26.9689 30.5295 26.9689 30.2351C26.9689 29.9408 26.905 29.6936 26.7782 29.4841C26.6515 29.2757 26.4734 29.1155 26.244 29.0044C26.0157 28.8934 25.7486 28.8379 25.4438 28.8379H23.6695V32.9479H24.785V31.5915H25.1715L25.8932 32.9479H27.105L26.2692 31.4135C26.4818 31.3108 26.6504 31.1673 26.773 30.9788V30.9799ZM24.785 29.7303H25.1778C25.3087 29.7303 25.4208 29.7481 25.514 29.7837C25.6072 29.8193 25.6784 29.8738 25.7287 29.9482C25.779 30.0225 25.8041 30.1189 25.8041 30.2362C25.8041 30.3535 25.779 30.4467 25.7287 30.519C25.6784 30.5913 25.6072 30.6436 25.514 30.6761C25.4208 30.7086 25.3087 30.7253 25.1778 30.7253H24.785V29.7303Z" fill="#231F20"/>
<path d="M28.9663 29.8906C29.0951 29.7994 29.2533 29.7544 29.4408 29.7544C29.5476 29.7544 29.6429 29.7691 29.7277 29.7994C29.8115 29.8298 29.8838 29.8728 29.9435 29.9283C30.0032 29.9838 30.0503 30.0498 30.0839 30.1262C30.1184 30.2027 30.1394 30.2875 30.1467 30.3808H31.279C31.257 30.1252 31.1962 29.8989 31.0967 29.701C30.9962 29.503 30.8642 29.3365 30.6997 29.2003C30.5353 29.0642 30.3436 28.9615 30.1258 28.8903C29.9079 28.8191 29.6691 28.7834 29.4093 28.7834C29.0396 28.7834 28.7055 28.8641 28.4059 29.0254C28.1063 29.1867 27.8686 29.4245 27.6916 29.7376C27.5146 30.0519 27.4266 30.4373 27.4266 30.894C27.4266 31.3507 27.5135 31.733 27.6863 32.0482C27.8592 32.3625 28.0959 32.6013 28.3944 32.7626C28.6929 32.9249 29.0312 33.0056 29.4083 33.0056C29.7089 33.0056 29.9739 32.9595 30.2012 32.8673C30.4285 32.7751 30.6191 32.6526 30.7741 32.5007C30.9281 32.3488 31.0485 32.1834 31.1323 32.0032C31.2161 31.823 31.2653 31.646 31.279 31.4722L30.1467 31.4638C30.1331 31.5518 30.108 31.6314 30.0692 31.7015C30.0304 31.7717 29.9823 31.8314 29.9215 31.8807C29.8618 31.9299 29.7906 31.9676 29.7089 31.9938C29.6272 32.02 29.535 32.0325 29.4324 32.0325C29.2522 32.0325 29.0972 31.9896 28.9694 31.9047C28.8406 31.8199 28.7432 31.6932 28.6751 31.5235C28.607 31.3538 28.5735 31.1443 28.5735 30.8929C28.5735 30.6552 28.607 30.4509 28.673 30.2812C28.739 30.1116 28.8364 29.9806 28.9663 29.8895V29.8906Z" fill="#231F20"/>
<path d="M31.7838 32.949H34.7375V32.0503H32.9004V31.3433H34.593V30.4446H32.9004V29.7387H34.7459V28.8389H31.7838V32.949Z" fill="#231F20"/>
<path d="M39.0078 28.8389H37.708L36.472 30.5012H36.4155V28.8389H35.3V32.949H36.4155V31.889L36.7842 31.4072L37.708 32.949H39.0403L37.619 30.6688L39.0078 28.8389Z" fill="#231F20"/>
<path d="M42.2349 32.949H43.4384L42.082 28.8389H40.557L39.2006 32.949H40.404L40.6418 32.1624H41.9972L42.2349 32.949ZM40.8942 31.3276L41.3038 29.9712H41.3362L41.7458 31.3276H40.8942Z" fill="#231F20"/>
</svg>
