<svg width="126" height="214" viewBox="0 0 126 214" fill="none" xmlns="http://www.w3.org/2000/svg">
<g clip-path="url(#clip0_9_74)">
<path d="M84.51 117.54H121.51V162.96C121.51 173.34 119.04 182.32 114.09 189.88C109.14 197.45 102.25 203.28 93.43 207.38C84.6 211.49 74.35 213.54 62.68 213.54C51.01 213.54 40.63 211.49 31.8 207.38C22.97 203.28 16.11 197.44 11.2 189.88C6.29998 182.32 3.84998 173.34 3.84998 162.96V117.54H40.85V159.77C40.85 163.99 41.78 167.75 43.64 171.05C45.5 174.36 48.09 176.94 51.39 178.8C54.69 180.66 58.46 181.59 62.67 181.59C66.88 181.59 70.7 180.66 73.98 178.8C77.26 176.94 79.84 174.35 81.7 171.05C83.56 167.75 84.49 163.99 84.49 159.77V117.54H84.51Z" fill="#231F20"/>
<path d="M114.01 69.53C112.39 69.07 110.74 68.71 109.08 68.45C115.62 61.46 120.17 53.06 122.67 43.32C125.07 33.96 125.81 24.06 125.01 12.17C124.55 4.75 119.73 0.09 112.37 0H111.88C104.32 0 96.82 1.42 88.95 4.36C69.4 11.66 52.57 30.85 49.99 53.87C47.01 50.89 43.59 48.27 39.74 46.03C33.28 42.3 26 40.41 18.1 40.41C14.74 40.41 11.28 40.73 7.54 41.4C2.95 42.23 -0.289999 46.37 0.0200015 51.02C0.0900015 52.08 0.150001 53.11 0.200001 54.13C0.330001 56.55 0.470001 59.05 0.770001 61.58C1.15 64.77 1.73 67.93 2.51 71.01C9.55 98.2 25.25 106.32 42.1 109.59H13.1C8.05 109.59 3.96 113.68 3.96 118.73V167.2C3.96 170.67 5.92 173.84 9.02 175.38C10.31 176.02 11.71 176.34 13.1 176.34C15.05 176.34 16.99 175.72 18.61 174.5L62.56 141.36L106.67 174.67C108.29 175.89 110.23 176.52 112.18 176.52C113.57 176.52 114.96 176.2 116.25 175.56C119.36 174.01 121.32 170.84 121.32 167.38V118.73C121.32 113.68 117.23 109.59 112.18 109.59H109.81C116.2 103.24 120.5 94.6 122.76 83.52C122.76 83.48 122.78 83.44 122.78 83.41C124.02 76.93 120.49 71.35 114 69.53H114.01Z" fill="#231F20"/>
<path d="M112.18 118.74V167.39L68.25 134.22L62.55 129.93L55.97 134.9L40.84 146.3V137.53H24.03V158.97L13.1 167.21V118.74H112.18Z" fill="#D9EFDE"/>
<path d="M113.8 81.7C110.35 98.63 102.07 108.61 85.41 112.27C81.54 113.13 77.55 113.51 72.94 114.22C76.93 106.33 82.66 100.81 88.18 95.11C78.61 100.69 71.37 108.11 68.3 118.74H55.39C55.12 115.46 54.71 112.15 54.09 108.87C51.73 96.4 45.61 86.12 37.22 76.97C36.24 75.88 35.15 74.87 33.94 73.93C39.49 82.85 45.49 91.51 49.3 101.52C29.33 98.8 17.28 91.65 11.34 68.73C10.66 66.04 10.16 63.26 9.83 60.52C9.45 57.27 9.36 53.96 9.12 50.42C18.43 48.77 27.11 49.33 35.14 53.96C45.89 60.19 52.01 69.76 54.4 81.87C55.28 86.27 56.38 90.64 57.38 95.04C57.47 95.48 57.71 95.9 58.09 96.81C59.39 89.96 60.57 83.69 61.69 77.4C61.81 76.75 61.57 76.01 61.37 75.39C52 47.8 69.58 21.33 92.12 12.92C98.62 10.5 105.3 9.08 112.27 9.14C114.75 9.17 115.7 10.15 115.84 12.74C116.49 22.28 116.17 31.7 113.77 41.04C110.14 55.22 101.57 65.5 88.9 72.5C83.14 75.66 77.14 78.38 71.03 81.04C74.78 66.51 81.13 53.33 88.16 40.27C87.51 41.01 86.83 41.78 86.18 42.54C85.5 43.34 84.79 44.11 84.14 44.93C74.3 57.72 68.57 72.25 65.88 88.03C64.73 94.71 63.96 101.47 63.57 108.23C63.51 109.44 64.19 110.36 64.66 115.26C65.46 112.84 66.58 111.12 66.52 109.41C66.25 102.91 68.76 97.56 72.57 92.6C78.57 84.8 86.01 79.25 95.94 77.59C101.17 76.71 106.34 76.85 111.48 78.3C113.37 78.83 114.11 79.81 113.75 81.67L113.8 81.7Z" fill="#B6F500"/>
</g>
<defs>
<clipPath id="clip0_9_74">
<rect width="125.31" height="213.54" fill="white"/>
</clipPath>
</defs>
</svg>
